<svg width="35" height="38" viewBox="0 0 35 38" fill="none" xmlns="http://www.w3.org/2000/svg">
<path d="M30 2.33333V4.41667H25.8334V2.33333C25.8334 1.1875 24.8959 0.25 23.75 0.25H11.25C10.1042 0.25 9.16671 1.1875 9.16671 2.33333V4.41667H5.00004V2.33333C5.00004 1.1875 4.06254 0.25 2.91671 0.25C1.77087 0.25 0.833374 1.1875 0.833374 2.33333V35.6667C0.833374 36.8125 1.77087 37.75 2.91671 37.75C4.06254 37.75 5.00004 36.8125 5.00004 35.6667V33.5833H9.16671V35.6667C9.16671 36.8125 10.1042 37.75 11.25 37.75H23.75C24.8959 37.75 25.8334 36.8125 25.8334 35.6667V33.5833H30V35.6667C30 36.8125 30.9375 37.75 32.0834 37.75C33.2292 37.75 34.1667 36.8125 34.1667 35.6667V2.33333C34.1667 1.1875 33.2292 0.25 32.0834 0.25C30.9375 0.25 30 1.1875 30 2.33333ZM9.16671 29.4167H5.00004V25.25H9.16671V29.4167ZM9.16671 21.0833H5.00004V16.9167H9.16671V21.0833ZM9.16671 12.75H5.00004V8.58333H9.16671V12.75ZM30 29.4167H25.8334V25.25H30V29.4167ZM30 21.0833H25.8334V16.9167H30V21.0833ZM30 12.75H25.8334V8.58333H30V12.75Z" fill="#AFA9F9"/>
</svg>
