<svg width="43" height="38" viewBox="0 0 43 38" fill="none" xmlns="http://www.w3.org/2000/svg">
<path d="M41.5684 7.84763C40.9139 6.33219 39.9701 4.9589 38.79 3.80466C37.609 2.64698 36.2166 1.72698 34.6885 1.0947C33.1039 0.436463 31.4043 0.0995396 29.6885 0.103489C27.2812 0.103489 24.9326 0.762669 22.8916 2.00779C22.4033 2.30564 21.9395 2.63279 21.5 2.98923C21.0605 2.63279 20.5967 2.30564 20.1084 2.00779C18.0674 0.762669 15.7187 0.103489 13.3115 0.103489C11.5781 0.103489 9.89844 0.43552 8.31152 1.0947C6.77832 1.72947 5.39648 2.64255 4.20996 3.80466C3.0283 4.9576 2.08436 6.33121 1.43164 7.84763C0.75293 9.42478 0.40625 11.0996 0.40625 12.8232C0.40625 14.4492 0.738281 16.1435 1.39746 17.8672C1.94922 19.3076 2.74023 20.8017 3.75098 22.3105C5.35254 24.6982 7.55469 27.1885 10.2891 29.7129C14.8203 33.8974 19.3076 36.7881 19.498 36.9052L20.6553 37.6474C21.168 37.9746 21.8271 37.9746 22.3398 37.6474L23.4971 36.9052C23.6875 36.7832 28.1699 33.8974 32.7061 29.7129C35.4404 27.1885 37.6426 24.6982 39.2441 22.3105C40.2549 20.8017 41.0508 19.3076 41.5977 17.8672C42.2568 16.1435 42.5889 14.4492 42.5889 12.8232C42.5937 11.0996 42.2471 9.42478 41.5684 7.84763V7.84763Z" fill="#AFA9F9"/>
</svg>
