<svg width="39" height="42" viewBox="0 0 39 42" fill="none" xmlns="http://www.w3.org/2000/svg">
<path d="M0.75 23.0833C0.75 28.0561 2.72544 32.8253 6.24175 36.3416C9.75805 39.8579 14.5272 41.8333 19.5 41.8333C19.5 36.8605 17.5246 32.0914 14.0083 28.5751C10.4919 25.0588 5.72281 23.0833 0.75 23.0833ZM19.5 41.8333C24.4728 41.8333 29.2419 39.8579 32.7583 36.3416C36.2746 32.8253 38.25 28.0561 38.25 23.0833C33.2772 23.0833 28.5081 25.0588 24.9917 28.5751C21.4754 32.0914 19.5 36.8605 19.5 41.8333ZM32 2.24999V12.6667C32 15.9819 30.683 19.1613 28.3388 21.5055C25.9946 23.8497 22.8152 25.1667 19.5 25.1667C16.1848 25.1667 13.0054 23.8497 10.6612 21.5055C8.31696 19.1613 7 15.9819 7 12.6667V2.24999C8.54167 2.24999 10.0625 2.49999 11.5 3.06249C12.6458 3.54166 13.6667 4.24999 14.5208 5.14582L19.5 0.166656L24.4792 5.14582C25.3333 4.24999 26.3542 3.54166 27.5 3.06249C28.936 2.51257 30.4624 2.23697 32 2.24999Z" fill="#AFA9F9"/>
</svg>
