<svg width="61" height="44" viewBox="0 0 61 44" fill="none" xmlns="http://www.w3.org/2000/svg">
<path d="M18.5 22C24.3031 22 29 17.1074 29 11.0625C29 5.01758 24.3031 0.125 18.5 0.125C12.6969 0.125 8 5.01758 8 11.0625C8 17.1074 12.6969 22 18.5 22ZM25.7 25.125H24.9219C22.9719 26.1016 20.8062 26.6875 18.5 26.6875C16.1938 26.6875 14.0375 26.1016 12.0781 25.125H11.3C5.3375 25.125 0.5 30.1641 0.5 36.375V39.1875C0.5 41.7754 2.51562 43.875 5 43.875H32C34.4844 43.875 36.5 41.7754 36.5 39.1875V36.375C36.5 30.1641 31.6625 25.125 25.7 25.125ZM45.5 22C50.4688 22 54.5 17.8008 54.5 12.625C54.5 7.44922 50.4688 3.25 45.5 3.25C40.5312 3.25 36.5 7.44922 36.5 12.625C36.5 17.8008 40.5312 22 45.5 22ZM50 25.125H49.6438C48.3406 25.5938 46.9625 25.9062 45.5 25.9062C44.0375 25.9062 42.6594 25.5938 41.3562 25.125H41C39.0875 25.125 37.325 25.7012 35.7781 26.6289C38.0656 29.1973 39.5 32.6055 39.5 36.375V40.125C39.5 40.3398 39.4531 40.5449 39.4437 40.75H56C58.4844 40.75 60.5 38.6504 60.5 36.0625C60.5 30.0176 55.8031 25.125 50 25.125Z" fill="#AFA9F9"/>
</svg>
