<svg width="51" height="50" viewBox="0 0 51 50" fill="none" xmlns="http://www.w3.org/2000/svg">
<g clip-path="url(#clip0_106_263)">
<path d="M18.5556 0C15.9601 0 13.8073 2.00195 13.191 4.70703C13.1215 4.70703 13.0694 4.6875 13 4.6875C9.93576 4.6875 7.44444 7.49023 7.44444 10.9375C7.44444 11.4063 7.49653 11.8652 7.59201 12.3047C5.05729 13.4766 3.27778 16.2695 3.27778 19.5312C3.27778 20.7617 3.55556 21.9043 3.99826 22.9395C1.91493 24.2871 0.5 26.7871 0.5 29.6875C0.5 32.9395 2.27083 35.7324 4.78819 36.9043C4.71007 37.3535 4.66667 37.8125 4.66667 38.2812C4.66667 42.168 7.46181 45.3125 10.9167 45.3125C11.2726 45.3125 11.6198 45.2637 11.9583 45.1953C12.7917 47.9785 15.1007 50 17.8611 50C21.316 50 24.1111 46.8555 24.1111 42.9688V6.25C24.1111 2.80273 21.6198 0 18.5556 0ZM50.5 29.6875C50.5 26.7871 49.0851 24.2871 47.0017 22.9395C47.4531 21.9043 47.7222 20.7617 47.7222 19.5312C47.7222 16.2695 45.9427 13.4766 43.408 12.3047C43.4948 11.8652 43.5556 11.4063 43.5556 10.9375C43.5556 7.49023 41.0642 4.6875 38 4.6875C37.9306 4.6875 37.8698 4.70703 37.809 4.70703C37.1927 2.00195 35.0399 0 32.4444 0C29.3802 0 26.8889 2.79297 26.8889 6.25V42.9688C26.8889 46.8555 29.684 50 33.1389 50C35.8993 50 38.2083 47.9785 39.0417 45.1953C39.3802 45.2637 39.7274 45.3125 40.0833 45.3125C43.5382 45.3125 46.3333 42.168 46.3333 38.2812C46.3333 37.8125 46.2899 37.3535 46.2118 36.9043C48.7292 35.7324 50.5 32.9395 50.5 29.6875Z" fill="#AFA9F9"/>
</g>
<defs>
<clipPath id="clip0_106_263">
<rect width="50" height="50" fill="white" transform="translate(0.5)"/>
</clipPath>
</defs>
</svg>
