<svg width="49" height="36" viewBox="0 0 49 36" fill="none" xmlns="http://www.w3.org/2000/svg">
<path d="M11.833 16H14.5V32H18.5V18H22.5V32H26.5V18H30.5V32H34.5V16H37.166C37.902 16 38.5 15.264 38.5 14.601C38.5 14.2 38.279 13.748 37.945 13.53L37.947 13.478L37.926 13.441L38.06 13.408L25.5 6.939V5.047C27.5 6.106 29.451 4.282 32.5 5.379V1.2C29.449 0.104 27.5 1.927 25.5 0.868V0.6C25.5 0.269 24.869 0 24.5 0C24.131 0 23.5 0.269 23.5 0.6V6.939L10.941 13.395L11.212 13.416L11.5 13.427V13.429C10.5 13.647 10.724 14.199 10.724 14.6C10.723 15.264 11.097 16 11.833 16ZM13.5 33L10.5 36H38.5L35.5 33H13.5ZM35.5 17V32H36.385L36.776 32.553L39.442 35.052L40.385 36H48.5V17H35.5ZM41.5 29H38.5V26H41.5V29ZM41.5 23H38.5V20H41.5V23ZM45.5 29H43.5V26H45.5V29ZM45.5 23H43.5V20H45.5V23ZM12.614 32H13.5V17H0.5V36H8.614L9.556 35.152L12.223 32.552L12.614 32ZM5.5 29H3.5V26H5.5V29ZM5.5 23H3.5V20H5.5V23ZM10.5 29H7.5V26H10.5V29ZM10.5 23H7.5V20H10.5V23Z" fill="#AFA9F9"/>
</svg>
