<svg width="30" height="25" viewBox="0 0 30 25" fill="none" xmlns="http://www.w3.org/2000/svg">
<path fill-rule="evenodd" clip-rule="evenodd" d="M10.7111 0.596577C4.43558 4.62677 0.949276 9.3176 0.252134 14.669C-0.833158 22.9999 6.617 27.0777 10.3919 23.4139C14.1668 19.75 11.904 15.0996 9.17058 13.8284C6.43717 12.5572 4.76558 12.9999 5.05717 11.3012C5.34875 9.60252 9.23759 4.89269 12.6541 2.69927C12.8808 2.50652 12.967 2.13252 12.7488 1.84877C12.6052 1.66219 12.3236 1.29623 11.904 0.750868C11.5371 0.273977 11.1856 0.291827 10.7111 0.596577Z" fill="#112A46"/>
<path fill-rule="evenodd" clip-rule="evenodd" d="M27.2324 0.596577C20.957 4.62677 17.4707 9.3176 16.7735 14.669C15.6882 22.9999 23.1384 27.0777 26.9133 23.4139C30.6882 19.75 28.4254 15.0996 25.692 13.8284C22.9586 12.5572 21.2869 12.9999 21.5786 11.3012C21.8702 9.60252 25.759 4.89269 29.1755 2.69927C29.4022 2.50652 29.4884 2.13252 29.2701 1.84877C29.1266 1.66219 28.845 1.29623 28.4254 0.750868C28.0585 0.273977 27.707 0.291827 27.2324 0.596577Z" fill="#112A46"/>
</svg>
