<svg width="39" height="38" viewBox="0 0 39 38" fill="none" xmlns="http://www.w3.org/2000/svg">
<path d="M4.91672 37.75C3.14589 37.75 1.88755 36.9604 1.14172 35.3813C0.394497 33.8007 0.576441 32.3333 1.68755 30.9792L13.2501 16.9167V4.41667H11.1667C10.5764 4.41667 10.0813 4.21667 9.6813 3.81667C9.28269 3.41806 9.08339 2.92361 9.08339 2.33333C9.08339 1.74306 9.28269 1.24792 9.6813 0.847917C10.0813 0.449305 10.5764 0.25 11.1667 0.25H27.8334C28.4237 0.25 28.9181 0.449305 29.3167 0.847917C29.7167 1.24792 29.9167 1.74306 29.9167 2.33333C29.9167 2.92361 29.7167 3.41806 29.3167 3.81667C28.9181 4.21667 28.4237 4.41667 27.8334 4.41667H25.7501V16.9167L37.3126 30.9792C38.4237 32.3333 38.6056 33.8007 37.8584 35.3813C37.1126 36.9604 35.8542 37.75 34.0834 37.75H4.91672Z" fill="#AFA9F9"/>
</svg>
